# xmcd
#
# Track frame offsets:
#	150
#	16183
#	29228
#	45423
#	59896
#	72776
#	89612
#	103691
#	120155
#	137353
#	152739
#	165807
#	178632
#	191738
#	213129
#	233625
#	257228
#	274232
#	286985
#	301072
#	322095
#	339767
#
# Disc length: 4717 seconds
#
# Revision: 0
# Processed by: cddbd v1.5.1PL0 Copyright (c) Steve Scherf et al.
# Submitted via: dBpowerAMP V4.0
#
DISCID=2f126b16
DTITLE=Дюмин Александр - Среди Вечных Дорог
DYEAR=2005
DGENRE=Chanson
TTITLE0=Шпана
TTITLE1=Люберцы
TTITLE2=Друзья
TTITLE3=Времечко
TTITLE4=Тюрьма
TTITLE5=Суета-Муета
TTITLE6=Босота
TTITLE7=Болюшка
TTITLE8=Валюха
TTITLE9=Так И Покатил Я...
TTITLE10=Тук-Тук-Тук
TTITLE11=Хуторок
TTITLE12=Неволя
TTITLE13=Журавли
TTITLE14=Мама
TTITLE15=Вешние Воды
TTITLE16=Колонна
TTITLE17=А Сечку Жрите Сами
TTITLE18=В Матроской Тишине
TTITLE19=Джанкойский Этап
TTITLE20=Судьба
TTITLE21=Человек С Гитарою
EXTD=
EXTT0=
EXTT1=
EXTT2=
EXTT3=
EXTT4=
EXTT5=
EXTT6=
EXTT7=
EXTT8=
EXTT9=
EXTT10=
EXTT11=
EXTT12=
EXTT13=
EXTT14=
EXTT15=
EXTT16=
EXTT17=
EXTT18=
EXTT19=
EXTT20=
EXTT21=
PLAYORDER=
